<svg id="レイヤー_1" data-name="レイヤー 1" xmlns="http://www.w3.org/2000/svg" viewBox="0 0 512 512"><defs><style>.cls-1{fill:#feeb00;}.cls-2{fill:#f08223;}.cls-3{fill:none;stroke:#f08223;stroke-miterlimit:10;stroke-width:6px;}</style></defs><title>board</title><circle class="cls-1" cx="256" cy="256" r="256"/><path class="cls-2" d="M512,256c0,141.38-114.62,256-256,256S0,397.38,0,256,114.62,0,256,0,512,114.62,512,256ZM256,32C132.29,32,32,132.29,32,256S132.29,480,256,480,480,379.71,480,256,379.71,32,256,32Z"/><line class="cls-3" x1="256" y1="48" x2="256" y2="80"/><line class="cls-3" x1="256" y1="432" x2="256" y2="464"/><line class="cls-3" x1="152" y1="75.87" x2="168" y2="103.58"/><line class="cls-3" x1="344" y1="408.42" x2="360" y2="436.13"/><line class="cls-3" x1="75.87" y1="152" x2="103.58" y2="168"/><line class="cls-3" x1="408.42" y1="344" x2="436.13" y2="360"/><line class="cls-3" x1="48" y1="256" x2="80" y2="256"/><line class="cls-3" x1="432" y1="256" x2="464" y2="256"/><line class="cls-3" x1="75.87" y1="360" x2="103.58" y2="344"/><line class="cls-3" x1="408.42" y1="168" x2="436.13" y2="152"/><line class="cls-3" x1="152" y1="436.13" x2="168" y2="408.42"/><line class="cls-3" x1="344" y1="103.58" x2="360" y2="75.87"/></svg>